<svg xmlns="http://www.w3.org/2000/svg" width="1280" height="760" viewBox="0 0 1280 760" role="img" aria-labelledby="title desc">
  <title id="title">QuantOS Runtime Pipeline</title>
  <desc id="desc">A simplified QuantOS architecture diagram showing inputs, the core runtime pipeline, and outputs.</desc>
  <defs>
    <style>
      .bg { fill: #f8fafc; }
      .title { font: 700 34px Arial, sans-serif; fill: #0f172a; }
      .subtitle { font: 400 18px Arial, sans-serif; fill: #475569; }
      .section { font: 700 20px Arial, sans-serif; fill: #0f172a; }
      .label { font: 700 16px Arial, sans-serif; fill: #0f172a; }
      .body { font: 400 14px Arial, sans-serif; fill: #334155; }
      .box { rx: 18; ry: 18; stroke-width: 2; }
      .arrow { stroke: #334155; stroke-width: 3; fill: none; marker-end: url(#arrowHead); }
      .note { font: 600 14px Arial, sans-serif; fill: #7c2d12; }
    </style>
    <marker id="arrowHead" markerWidth="10" markerHeight="10" refX="9" refY="5" orient="auto">
      <path d="M 0 0 L 10 5 L 0 10 z" fill="#334155"/>
    </marker>
  </defs>

  <rect class="bg" x="0" y="0" width="1280" height="760"/>

  <text class="title" x="50" y="64">QuantOS Runtime Pipeline</text>
  <text class="subtitle" x="50" y="94">Deterministic market-data replay and execution flow with explicit model and gate seams</text>

  <text class="section" x="90" y="150">Inputs</text>
  <text class="section" x="405" y="150">Core Runtime</text>
  <text class="section" x="985" y="150">Outputs</text>

  <rect class="box" x="50" y="180" width="250" height="86" fill="#dbeafe" stroke="#60a5fa"/>
  <text class="label" x="76" y="216">Replay Sources</text>
  <text class="body" x="76" y="242">parquet and csv bars</text>

  <rect class="box" x="50" y="292" width="250" height="86" fill="#dcfce7" stroke="#4ade80"/>
  <text class="label" x="76" y="328">Live Sources</text>
  <text class="body" x="76" y="354">simulator and exchange adapters</text>

  <rect class="box" x="50" y="404" width="250" height="86" fill="#fef3c7" stroke="#f59e0b"/>
  <text class="label" x="76" y="440">Config And Registry</text>
  <text class="body" x="76" y="466">YAML configs and component builders</text>

  <rect class="box" x="360" y="180" width="470" height="78" fill="#ffffff" stroke="#cbd5e1"/>
  <text class="label" x="388" y="215">MarketDataEngine</text>
  <text class="body" x="388" y="240">normalization, calendar handling, aggregation, bounded rivers</text>

  <rect class="box" x="360" y="282" width="470" height="78" fill="#f5f3ff" stroke="#a78bfa"/>
  <text class="label" x="388" y="317">ModelEngine</text>
  <text class="body" x="388" y="342">volatility and regime today, richer engines can plug in later</text>

  <rect class="box" x="360" y="384" width="470" height="78" fill="#eef2ff" stroke="#818cf8"/>
  <text class="label" x="388" y="419">Strategies</text>
  <text class="body" x="388" y="444">public EMA example and public strategy template</text>

  <rect class="box" x="360" y="486" width="470" height="78" fill="#f0fdf4" stroke="#4ade80"/>
  <text class="label" x="388" y="521">GateEngine</text>
  <text class="body" x="388" y="546">model alignment now, suitability or regime-aware gates later</text>

  <rect class="box" x="360" y="588" width="470" height="92" fill="#fff7ed" stroke="#fb923c"/>
  <text class="label" x="388" y="623">Portfolio, Risk, Execution, Accounting</text>
  <text class="body" x="388" y="648">targets, risk approval, simulated broker, fills, equity, PnL</text>

  <rect class="box" x="920" y="180" width="300" height="100" fill="#ffffff" stroke="#cbd5e1"/>
  <text class="label" x="948" y="216">Run Artifacts</text>
  <text class="body" x="948" y="242">manifest.json, summary.json, trades.jsonl,</text>
  <text class="body" x="948" y="264">fills.jsonl, equity curves, session stats</text>

  <rect class="box" x="920" y="320" width="300" height="100" fill="#ecfeff" stroke="#22d3ee"/>
  <text class="label" x="948" y="356">Visualization And Inspection</text>
  <text class="body" x="948" y="382">equity curve, trade charts, overlays,</text>
  <text class="body" x="948" y="404">post-run diagnostics</text>

  <rect class="box" x="920" y="460" width="300" height="100" fill="#eef2ff" stroke="#818cf8"/>
  <text class="label" x="948" y="496">Runtime Modes</text>
  <text class="body" x="948" y="522">backtest, paper, live</text>

  <path class="arrow" d="M 300 223 C 324 223, 332 219, 360 219"/>
  <path class="arrow" d="M 300 335 C 324 335, 332 232, 360 219"/>
  <path class="arrow" d="M 300 447 C 324 447, 332 246, 360 219"/>

  <path class="arrow" d="M 595 258 L 595 282"/>
  <path class="arrow" d="M 595 360 L 595 384"/>
  <path class="arrow" d="M 595 462 L 595 486"/>
  <path class="arrow" d="M 595 564 L 595 588"/>

  <path class="arrow" d="M 830 219 C 864 219, 882 230, 920 230"/>
  <path class="arrow" d="M 830 321 C 864 321, 882 370, 920 370"/>
  <path class="arrow" d="M 830 634 C 864 634, 882 510, 920 510"/>

  <text class="note" x="50" y="725">Private alpha logic is intentionally removed from the public repo. The runtime and extension seams are not.</text>
</svg>
